# xmcd
#
# Track frame offsets: 
#        150
#        10027
#        20845
#        33247
#        46780
#        58237
#        68244
#        80471
#        93560
#        104934
#        115734
#        127213
#        138445
#        150657
#        162333
#        175004
#        188609
#        202012
#        214252
#        226772
#
# Disc length: 3186 seconds
#
# Revision: 0
# Processed by: cddbd v1.5.2PL0 Copyright (c) Steve Scherf et al.
# Submitted via: ExactAudioCopyFreeDBPlugin 1.0
#
DISCID=180c7014
DTITLE=Ray Price - The Essential Early Recordings - CD2
DYEAR=2014
DGENRE=Country
TTITLE0=If You Don't Somebody Else Will (1954)
TTITLE1=One Broken Heart (Don't Mean A Thing) (1954)
TTITLE2=Sweet Little Miss Blue Eyes (12955)
TTITLE3=Let Me Talk To You (1955)
TTITLE4=A Man Called Peter (1955)
TTITLE5=I Can't Go Home Like This (1955)
TTITLE6=Run Boy (1955)
TTITLE7=You Never Will Be True (1955)
TTITLE8=Crazy Arms (1956)
TTITLE9=You Done Me Wrong (1956)
TTITLE10=I Don't Want It On My Conscience (1956)
TTITLE11=Wasted Words (1956)
TTITLE12=I've Got A New Heartache (1956)
TTITLE13=My Shoes Keep Walking Back To You (1957)
TTITLE14=Invitation To The Blues (1957)
TTITLE15=City Lights (1957)
TTITLE16=Heartaches By The Number (1959)
TTITLE17=The Same Old Me (1959)
TTITLE18=One More Time (1960)
TTITLE19=Heart Over Mind (1961)
EXTD=
EXTT0=
EXTT1=
EXTT2=
EXTT3=
EXTT4=
EXTT5=
EXTT6=
EXTT7=
EXTT8=
EXTT9=
EXTT10=
EXTT11=
EXTT12=
EXTT13=
EXTT14=
EXTT15=
EXTT16=
EXTT17=
EXTT18=
EXTT19=
PLAYORDER=
